# xmcd CD database file
#
# Track frame offsets:
#	150
#	32727
#	50712
#	83594
#	108192
#	133995
#	165746
#	201297
#	231484
#	235065
#	266278
#	289754
#	325141
#
# Disc length: 4620 seconds
#
# Revision: 0
# Processed by: cddbd v1.5.1PL0 Copyright (c) Steve Scherf et al.
# Submitted via: CDex 1.50beta10
#
DISCID=b6120a0d
DTITLE=Various Artist - La Fete Des Jazz
DYEAR=2001
DGENRE=Jazz
TTITLE0=Le Sacre du Tympan_La procession des illumines
TTITLE1=Badault Bex Emler_Headgames Part 2
TTITLE2=Manuel Rocheman Trio_New Waltz
TTITLE3=Monniot Mania_Desafinado
TTITLE4=StanLaferriere Tentet_Ces quelques fleurs
TTITLE5=Christian Escoude Quartet_Soft moments
TTITLE6=Andre Villeger et Patrick Artero Jazz Five_Chaga Chaga
TTITLE7=Baptiste Trotignon Trio_L'amer a boire
TTITLE8=Interlude
TTITLE9=Jerome Barde Sextet_Ombrage
TTITLE10=Philippe Mace Vent d' Quest Sextet_Mardou
TTITLE11=Sebastien Textier Quintet_Catalonia
TTITLE12=Marcel Zanini Sextet_Heureux pres de toi (Sometimes I'm happy)
EXTD=YEAR: 2001
EXTT0=
EXTT1=
EXTT2=
EXTT3=
EXTT4=
EXTT5=
EXTT6=
EXTT7=
EXTT8=
EXTT9=
EXTT10=
EXTT11=
EXTT12=
PLAYORDER=
